<svg class="diagram-root" style="background: #f5f6f6" xmlns="http://www.w3.org/2000/svg" xmlns:xlink="http://www.w3.org/1999/xlink"><style>.diagram-root { font-family: "Helvetica Neue", sans-serif; font-size: 12px; } .t { overflow: visible; } .t-bg { y: 40; fill: #fff;   } .th { fill: #005aa0;   } .tht { fill: #fff; font-size: 14px;  } .tf { fill: #323c46; overflow: visible; } .tf.pk { fill: #005aa0; font-weight: bold; } .tf.fk { font-weight: bold; } .ty { fill: #adb1b5; font-weight: normal; text-anchor: end; } .r { fill: transparent; stroke: #c3c3c3; stroke-width: 1; } .l { stroke: 1; } .i { fill: #c2c7ce; stroke: #c2c7ce; } .i.ix { fill: #afb3b6; stroke: #000; } .fa { fill: transparent; overflow: visible; } .fa .bg.hover { fill: #f7f7f7; } .c { cy: 12; r: 4; stroke: #d2d2dc; fill: #d2d2dc; } .hr { fill: transparent; stroke: #323c46; stroke-opacity: 0.035; stroke-width: 13; } .dc { stroke: #fa5a3c; fill: #fa5a3c; } .x { stroke: white; stroke-width: 1; } .hl .th { fill: #1b9bff; } .hl .tht {  } .fhl .bg { fill: #e7f4ff; } .fhls .bg {  } .r.hl { stroke: #1b9bff; } .dim { opacity: 0.25; }</style><g class="drawing-wrapper" transform="translate(2, 18) scale(1,1)"><g class="rs"><path d="M 335 120 m -1, 0 a 1,1 0 1,0 2,0 a 1,1 0 1,0 -2,0 M 335 120 m -0.5, 0 a 0.5,0.5 0 1,0 1,0 a 0.5,0.5 0 1,0 -1,0  M335 120 L335 120 323 120 M 335 126 m -1, 0 a 1,1 0 1,0 2,0 a 1,1 0 1,0 -2,0 M 335 126 m -0.5, 0 a 0.5,0.5 0 1,0 1,0 a 0.5,0.5 0 1,0 -1,0  M335 126 L335 126 328 120 335 114 M 335 114 m -1, 0 a 1,1 0 1,0 2,0 a 1,1 0 1,0 -2,0 M 335 114 m -0.5, 0 a 0.5,0.5 0 1,0 1,0 a 0.5,0.5 0 1,0 -1,0  M323 120 Q 297.25 120, 271.5 103.5 T 220 87 M 208 87 m -1, 0 a 1,1 0 1,0 2,0 a 1,1 0 1,0 -2,0 M 208 87 m -0.5, 0 a 0.5,0.5 0 1,0 1,0 a 0.5,0.5 0 1,0 -1,0  M208 87 L208 87 220 87 M214 93 L214 93 214 81" id="h2417443952" class="r"></path><path d="M 500 145 m -1, 0 a 1,1 0 1,0 2,0 a 1,1 0 1,0 -2,0 M 500 145 m -0.5, 0 a 0.5,0.5 0 1,0 1,0 a 0.5,0.5 0 1,0 -1,0  M500 145 L500 145 512 145 M 500 151 m -1, 0 a 1,1 0 1,0 2,0 a 1,1 0 1,0 -2,0 M 500 151 m -0.5, 0 a 0.5,0.5 0 1,0 1,0 a 0.5,0.5 0 1,0 -1,0  M500 151 L500 151 507 145 500 139 M 500 139 m -1, 0 a 1,1 0 1,0 2,0 a 1,1 0 1,0 -2,0 M 500 139 m -0.5, 0 a 0.5,0.5 0 1,0 1,0 a 0.5,0.5 0 1,0 -1,0  M512 145 C 562 145, 563.8 365, 509 365 M 497 365 m -1, 0 a 1,1 0 1,0 2,0 a 1,1 0 1,0 -2,0 M 497 365 m -0.5, 0 a 0.5,0.5 0 1,0 1,0 a 0.5,0.5 0 1,0 -1,0  M497 365 L497 365 509 365 M503 371 L503 371 503 359" id="h3784829636" class="r"></path></g><g class="hrs"></g><g class="ts"><svg width="178" height="275" x="30" y="30" id="h2222089185" class="t"><rect height="40" width="178" class="th"></rect><text x="13" y="25" class="tht">usuarios</text><rect height="235" width="178" class="t-bg" y="40"></rect><text x="13" y="61" class="tf pk">id<tspan x="165" class="ty">INT</tspan></text><path d="M7,14A2,2 0 0,1 5,12A2,2 0 0,1 7,10A2,2 0 0,1 9,12A2,2 0 0,1 7,14M12.65,10C11.83,7.67 9.61,6 7, 6A6, 6 0 0, 0 1, 12A6, 6 0 0, 0 7, 18C9.61, 18 11.83, 16.33 12.65, 14H17V18H21V14H23V10H12.65Z" class="i pk" transform="translate(126, 48) scale(0.65)"></path><text x="13" y="86" class="tf">nome<tspan x="165" class="ty">VARCHAR(255)</tspan></text><text x="13" y="111" class="tf">email<tspan x="165" class="ty">VARCHAR(100)</tspan></text><path d="M22,18V22H18V19H15V16H12L9.74,13.74C9.19,13.91 8.61,14 8,14A6,6 0 0,1 2,8A6,6 0 0,1 8,2A6,6 0 0,1 14,8C14,8.61 13.91, 9.19 13.74, 9.74L22, 18M7, 5A2, 2 0 0, 0 5, 7A2, 2 0 0, 0 7, 9A2, 2 0 0, 0 9, 7A2, 2 0 0, 0 7, 5Z" class="i uq" transform="translate(64, 100.5) scale(0.5)"></path><text x="13" y="136" class="tf">endereco<tspan x="165" class="ty">VARCHAR(50)</tspan></text><text x="13" y="161" class="tf">data_nascimento<tspan x="165" class="ty">DATE</tspan></text><text x="13" y="186" class="tf">rua<tspan x="165" class="ty">VARCHAR(100),</tspan></text><text x="13" y="211" class="tf">numero<tspan x="165" class="ty">VARCHAR(10),</tspan></text><text x="13" y="236" class="tf">cidade<tspan x="165" class="ty">VARCHAR(50),</tspan></text><text x="13" y="261" class="tf">estado<tspan x="165" class="ty">VARCHAR(20);</tspan></text></svg><svg width="185" height="125" x="312" y="308" id="h1963518120" class="t"><rect height="40" width="185" class="th"></rect><text x="13" y="25" class="tht">destinos</text><rect height="85" width="185" class="t-bg" y="40"></rect><text x="13" y="61" class="tf pk">id<tspan x="172" class="ty">INT</tspan></text><path d="M7,14A2,2 0 0,1 5,12A2,2 0 0,1 7,10A2,2 0 0,1 9,12A2,2 0 0,1 7,14M12.65,10C11.83,7.67 9.61,6 7, 6A6, 6 0 0, 0 1, 12A6, 6 0 0, 0 7, 18C9.61, 18 11.83, 16.33 12.65, 14H17V18H21V14H23V10H12.65Z" class="i pk" transform="translate(133, 48) scale(0.65)"></path><text x="13" y="86" class="tf">nome<tspan x="172" class="ty">VARCHAR(255)</tspan></text><path d="M22,18V22H18V19H15V16H12L9.74,13.74C9.19,13.91 8.61,14 8,14A6,6 0 0,1 2,8A6,6 0 0,1 8,2A6,6 0 0,1 14,8C14,8.61 13.91, 9.19 13.74, 9.74L22, 18M7, 5A2, 2 0 0, 0 5, 7A2, 2 0 0, 0 7, 9A2, 2 0 0, 0 9, 7A2, 2 0 0, 0 7, 5Z" class="i uq" transform="translate(71, 75.5) scale(0.5)"></path><text x="13" y="111" class="tf">descricao<tspan x="172" class="ty">VARCHAR(255)</tspan></text></svg><svg width="165" height="175" x="335" y="38" id="h2092458281" class="t"><rect height="40" width="165" class="th"></rect><text x="13" y="25" class="tht">reservas</text><rect height="135" width="165" class="t-bg" y="40"></rect><text x="13" y="61" class="tf pk">id<tspan x="152" class="ty">INT</tspan></text><path d="M7,14A2,2 0 0,1 5,12A2,2 0 0,1 7,10A2,2 0 0,1 9,12A2,2 0 0,1 7,14M12.65,10C11.83,7.67 9.61,6 7, 6A6, 6 0 0, 0 1, 12A6, 6 0 0, 0 7, 18C9.61, 18 11.83, 16.33 12.65, 14H17V18H21V14H23V10H12.65Z" class="i pk" transform="translate(113, 48) scale(0.65)"></path><text x="13" y="86" class="tf fk">id_usuario<tspan x="152" class="ty">INT</tspan></text><text x="13" y="111" class="tf fk">id_destino<tspan x="152" class="ty">INT</tspan></text><text x="13" y="136" class="tf">data<tspan x="152" class="ty">DATE</tspan></text><text x="13" y="161" class="tf">status<tspan x="152" class="ty">VARCHAR(255)</tspan></text></svg></g></g><text class="qdbd-link" x="10" y="20">www.quickdatabasediagrams.com</text></svg>