<svg class="diagram-root" style="background: #f5f6f6" xmlns="http://www.w3.org/2000/svg" xmlns:xlink="http://www.w3.org/1999/xlink"><style>.diagram-root { font-family: "Helvetica Neue", sans-serif; font-size: 12px; } .t { overflow: visible; } .t-bg { y: 40; fill: #fff;   } .th { fill: #005aa0;   } .tht { fill: #fff; font-size: 14px;  } .tf { fill: #323c46; overflow: visible; } .tf.pk { fill: #005aa0; font-weight: bold; } .tf.fk { font-weight: bold; } .ty { fill: #adb1b5; font-weight: normal; text-anchor: end; } .r { fill: transparent; stroke: #c3c3c3; stroke-width: 1; } .l { stroke: 1; } .i { fill: #c2c7ce; stroke: #c2c7ce; } .i.ix { fill: #afb3b6; stroke: #000; } .fa { fill: transparent; overflow: visible; } .fa .bg.hover { fill: #f7f7f7; } .c { cy: 12; r: 4; stroke: #d2d2dc; fill: #d2d2dc; } .hr { fill: transparent; stroke: #323c46; stroke-opacity: 0.035; stroke-width: 13; } .dc { stroke: #fa5a3c; fill: #fa5a3c; } .x { stroke: white; stroke-width: 1; } .hl .th { fill: #1b9bff; } .hl .tht {  } .fhl .bg { fill: #e7f4ff; } .fhls .bg {  } .r.hl { stroke: #1b9bff; } .dim { opacity: 0.25; }</style><g class="drawing-wrapper" transform="translate(41, -16) scale(1,1)"><g class="rs"><path d="M 239 278 m -1, 0 a 1,1 0 1,0 2,0 a 1,1 0 1,0 -2,0 M 239 278 m -0.5, 0 a 0.5,0.5 0 1,0 1,0 a 0.5,0.5 0 1,0 -1,0  M239 278 L239 278 227 278 M233 284 L233 284 233 272 M227 278 Q 203.5 278, 180 208.5 T 133 139 M 121 139 m -1, 0 a 1,1 0 1,0 2,0 a 1,1 0 1,0 -2,0 M 121 139 m -0.5, 0 a 0.5,0.5 0 1,0 1,0 a 0.5,0.5 0 1,0 -1,0  M121 139 L121 139 133 139 M127 145 L127 145 127 133" id="h391891026" class="r"></path><path d="M 453 303 m -1, 0 a 1,1 0 1,0 2,0 a 1,1 0 1,0 -2,0 M 453 303 m -0.5, 0 a 0.5,0.5 0 1,0 1,0 a 0.5,0.5 0 1,0 -1,0  M453 303 L453 303 465 303 M459 309 L459 309 459 297 M465 303 Q 499.19 303, 533.38 228.13 T 601.75 153.25 M 613.75 153.25 m -1, 0 a 1,1 0 1,0 2,0 a 1,1 0 1,0 -2,0 M 613.75 153.25 m -0.5, 0 a 0.5,0.5 0 1,0 1,0 a 0.5,0.5 0 1,0 -1,0  M613.75 153.25 L613.75 153.25 601.75 153.25 M607.75 159.25 L607.75 159.25 607.75 147.25" id="h4026724814" class="r"></path></g><g class="hrs"></g><g class="ts"><svg width="140" height="125" x="-19" y="57" id="h2782209981" class="t"><rect height="40" width="140" class="th"></rect><text x="13" y="25" class="tht">categoria</text><rect height="85" width="140" class="t-bg" y="40"></rect><text x="13" y="61" class="tf">pk_id(pk)<tspan x="127" class="ty">int</tspan></text><text x="13" y="86" class="tf pk">id<tspan x="127" class="ty">uuid</tspan></text><path d="M7,14A2,2 0 0,1 5,12A2,2 0 0,1 7,10A2,2 0 0,1 9,12A2,2 0 0,1 7,14M12.65,10C11.83,7.67 9.61,6 7, 6A6, 6 0 0, 0 1, 12A6, 6 0 0, 0 7, 18C9.61, 18 11.83, 16.33 12.65, 14H17V18H21V14H23V10H12.65Z" class="i pk" transform="translate(83, 73) scale(0.65)"></path><text x="13" y="111" class="tf">nome<tspan x="127" class="ty">varchar(40)</tspan></text></svg><svg width="214" height="275" x="239" y="46" id="h1288919409" class="t"><rect height="40" width="214" class="th"></rect><text x="13" y="25" class="tht">atleta</text><rect height="235" width="214" class="t-bg" y="40"></rect><text x="13" y="61" class="tf">pk_id(pk)<tspan x="201" class="ty">int</tspan></text><text x="13" y="86" class="tf">nome<tspan x="201" class="ty">varchar(50)</tspan></text><text x="13" y="111" class="tf">cpf<tspan x="201" class="ty">varchar(11)</tspan></text><text x="13" y="136" class="tf">idade<tspan x="201" class="ty">int</tspan></text><text x="13" y="161" class="tf">peso<tspan x="201" class="ty">float(10,2)</tspan></text><text x="13" y="186" class="tf">altura<tspan x="201" class="ty">float(10,2)</tspan></text><text x="13" y="211" class="tf">sexo<tspan x="201" class="ty">varchar(1)</tspan></text><text x="13" y="236" class="tf pk">categoria_id<tspan x="201" class="ty">uuid</tspan></text><path d="M7,14A2,2 0 0,1 5,12A2,2 0 0,1 7,10A2,2 0 0,1 9,12A2,2 0 0,1 7,14M12.65,10C11.83,7.67 9.61,6 7, 6A6, 6 0 0, 0 1, 12A6, 6 0 0, 0 7, 18C9.61, 18 11.83, 16.33 12.65, 14H17V18H21V14H23V10H12.65Z" class="i pk" transform="translate(157, 223) scale(0.65)"></path><text x="13" y="261" class="tf pk">centro_treinamento_id<tspan x="201" class="ty">uuid</tspan></text><path d="M7,14A2,2 0 0,1 5,12A2,2 0 0,1 7,10A2,2 0 0,1 9,12A2,2 0 0,1 7,14M12.65,10C11.83,7.67 9.61,6 7, 6A6, 6 0 0, 0 1, 12A6, 6 0 0, 0 7, 18C9.61, 18 11.83, 16.33 12.65, 14H17V18H21V14H23V10H12.65Z" class="i pk" transform="translate(157, 248) scale(0.65)"></path></svg><svg width="171" height="175" x="613.75" y="71.25" id="h322727004" class="t"><rect height="40" width="171" class="th"></rect><text x="13" y="25" class="tht">centro_treinamento</text><rect height="135" width="171" class="t-bg" y="40"></rect><text x="13" y="61" class="tf">pk_id(pk)<tspan x="158" class="ty">int</tspan></text><text x="13" y="86" class="tf fk">id<tspan x="158" class="ty">uui</tspan></text><text x="13" y="111" class="tf">nome<tspan x="158" class="ty">varchar(20)</tspan></text><text x="13" y="136" class="tf">endereco<tspan x="158" class="ty">varchar(60)</tspan></text><text x="13" y="161" class="tf">proprietario<tspan x="158" class="ty">varchar(30)</tspan></text></svg></g></g><text class="qdbd-link" x="10" y="20">www.quickdatabasediagrams.com</text></svg>